<svg xmlns="http://www.w3.org/2000/svg" xmlns:xlink="http://www.w3.org/1999/xlink" version="1.1" id="&#1057;&#1083;&#1086;&#1081;_1" x="0px" y="0px" width="100px" height="100px" viewBox="0 0 100 100" enable-background="new 0 0 100 100" xml:space="preserve">
<path fill="none" d="M57.805,76.256c1.951-0.58,3.319-2.639,4.076-5.706c-2.489,2.026-5.06,3.778-7.65,5.245  C55.489,76.396,56.699,76.585,57.805,76.256z"/>
<path fill="none" d="M50,10c-22.056,0-40,17.944-40,40c0,22.056,17.944,40,40,40c22.056,0,40-17.944,40-40  C90,27.944,72.056,10,50,10z M66.438,66.438c-0.462,0.462-0.929,0.913-1.399,1.354c-0.43,6.7-2.49,11.449-6.033,12.503  c-2.411,0.717-5.184-0.376-7.977-2.84c-10.785,5.1-21.463,5.144-27.546-0.939c-9.064-9.063-4.542-28.333,10.079-42.954  c0.458-0.458,0.928-0.887,1.395-1.324c0.425-6.718,2.489-11.478,6.038-12.532c3.658-1.087,8.143,1.982,12.272,7.698  c3.445,4.77,6.642,11.382,8.9,18.979c1.479,4.975,2.388,9.815,2.763,14.215c-0.672,0.758-1.372,1.502-2.101,2.23  c-0.086,0.086-0.177,0.167-0.264,0.253c-0.098-4.693-0.979-10.243-2.694-16.016c-2.235-7.52-5.449-13.951-8.785-18.174  c-0.761-0.963-1.527-1.81-2.291-2.53c-3.085,1.49-6.176,3.448-9.133,5.86c0.282-2.28,0.811-3.972,1.473-5.067  c1.538-1.092,3.098-2.066,4.664-2.948c-1.271-0.614-2.49-0.794-3.604-0.463c-1.953,0.58-3.323,2.64-4.079,5.709  c0.003-0.003,0.007-0.006,0.011-0.009c-0.339,1.368-0.556,2.936-0.647,4.667c-0.002,0.002-0.004,0.004-0.006,0.006  c-0.067,1.273-0.066,2.633,0.003,4.063c0.216,4.413,1.086,9.491,2.65,14.755c2.418,8.135,5.981,15.002,9.605,19.17  c-0.856,0.397-1.712,0.765-2.566,1.085c-3.61-4.808-6.982-11.656-9.335-19.573c-1.434-4.825-2.333-9.523-2.728-13.816  c-0.1-1.089-0.16-2.145-0.196-3.176c-11.994,12.557-15.568,28.678-7.891,36.357c4.817,4.817,12.961,5.199,21.461,1.856  c-0.001-0.001-0.003-0.003-0.004-0.004c0.884-0.348,1.771-0.729,2.659-1.156c3.903-1.878,7.815-4.52,11.456-7.859  c0.557-0.51,1.109-1.031,1.652-1.574c0.291-0.291,0.572-0.586,0.854-0.882c11.988-12.554,15.558-28.669,7.883-36.343  c-4.44-4.439-11.704-5.112-19.47-2.575c-0.846-1.041-1.695-1.97-2.544-2.783c10.09-4.196,19.843-3.885,25.549,1.822  C85.581,32.547,81.06,51.817,66.438,66.438z M57.5,50c0,4.143-3.357,7.5-7.5,7.5c-4.142,0-7.5-3.357-7.5-7.5  c0-4.142,3.358-7.5,7.5-7.5C54.143,42.5,57.5,45.858,57.5,50z"/>
<path d="M88.721,14.814C89.132,14.923,89.555,15,90,15c2.762,0,5-2.238,5-5s-2.238-5-5-5s-5,2.238-5,5  c0,0.445,0.077,0.868,0.186,1.279l-5.188,5.187C72.037,9.339,61.526,5,50,5C25.147,5,5,25.147,5,50  c0,11.526,4.339,22.037,11.466,29.998l-5.187,5.188C10.868,85.077,10.445,85,10,85c-2.761,0-5,2.238-5,5s2.239,5,5,5s5-2.238,5-5  c0-0.445-0.077-0.868-0.186-1.279l5.187-5.188C27.963,90.661,38.473,95,50,95c24.853,0,45-20.147,45-45  c0-11.527-4.339-22.037-11.467-29.999L88.721,14.814z M50,90c-22.056,0-40-17.944-40-40c0-22.056,17.944-40,40-40  c22.056,0,40,17.944,40,40C90,72.056,72.056,90,50,90z"/>
<path d="M50.967,21.661c0.849,0.813,1.699,1.742,2.544,2.783c7.766-2.537,15.029-1.864,19.47,2.575  c7.675,7.674,4.105,23.79-7.883,36.343c-0.282,0.296-0.563,0.591-0.854,0.882c-0.543,0.543-1.096,1.064-1.652,1.574  c-3.641,3.34-7.553,5.981-11.456,7.859c-0.888,0.427-1.775,0.809-2.659,1.156c0.001,0.001,0.002,0.003,0.004,0.004  c-8.5,3.343-16.645,2.961-21.461-1.856c-7.677-7.679-4.103-23.8,7.891-36.357c0.036,1.032,0.096,2.087,0.196,3.176  c0.395,4.293,1.293,8.991,2.728,13.816c2.353,7.917,5.725,14.766,9.335,19.573c0.854-0.32,1.709-0.688,2.566-1.085  c-3.624-4.168-7.187-11.035-9.605-19.17c-1.564-5.264-2.434-10.342-2.65-14.755c-0.07-1.431-0.07-2.79-0.003-4.063  c0.002-0.002,0.004-0.004,0.006-0.006c0.091-1.73,0.308-3.298,0.647-4.667c-0.003,0.003-0.007,0.006-0.011,0.009  c0.756-3.069,2.126-5.129,4.079-5.709c1.114-0.331,2.333-0.151,3.604,0.463c-1.566,0.882-3.126,1.856-4.664,2.948  c-0.662,1.095-1.191,2.787-1.473,5.067c2.957-2.413,6.047-4.371,9.133-5.86c0.763,0.72,1.53,1.567,2.291,2.53  c3.336,4.223,6.55,10.654,8.785,18.174c1.716,5.773,2.597,11.323,2.694,16.016c0.087-0.086,0.178-0.167,0.264-0.253  c0.729-0.729,1.429-1.473,2.101-2.23c-0.375-4.4-1.283-9.24-2.763-14.215c-2.259-7.598-5.455-14.209-8.9-18.979  c-4.129-5.716-8.614-8.785-12.272-7.698c-3.549,1.055-5.613,5.814-6.038,12.532c-0.467,0.437-0.937,0.866-1.395,1.324  C18.941,48.184,14.419,67.453,23.483,76.517c6.083,6.083,16.761,6.039,27.546,0.939c2.793,2.464,5.565,3.557,7.977,2.84  c3.543-1.054,5.604-5.803,6.033-12.503c0.471-0.441,0.938-0.893,1.399-1.354C81.06,51.817,85.581,32.547,76.517,23.483  C70.811,17.776,61.058,17.465,50.967,21.661z M57.805,76.256c-1.105,0.329-2.315,0.141-3.574-0.461  c2.591-1.467,5.161-3.219,7.65-5.245C61.124,73.617,59.756,75.676,57.805,76.256z"/>
<circle cx="50" cy="50" r="7.5"/>
</svg>